<svg xmlns="http://www.w3.org/2000/svg" viewBox="0 0 512 512" id="head"><g><path d="M410.713,188H317V153h32.12a7.67,7.67,0,0,0,7.88-7.728V104.091a29.441,29.441,0,0,0,11.516-6.884,27.459,27.459,0,1,0-38.915,0,29.042,29.042,0,0,0,11.4,6.884V137H309.364A8.554,8.554,0,0,0,301,145.272V188H282V99.684a27.366,27.366,0,0,0,11.457-6.862h0A27.539,27.539,0,1,0,266,99.684V188H247V145.272A8.554,8.554,0,0,0,238.636,137H207V104.091a29.031,29.031,0,0,0,11.4-6.884,27.573,27.573,0,1,0-38.911,0A29.449,29.449,0,0,0,191,104.091v41.181A7.67,7.67,0,0,0,198.88,153H231v35H136.51a7.312,7.312,0,0,0-7.51,7.662v41.03L89.953,332.1a18.217,18.217,0,0,0,16.806,25.256h.187l23.619-.274,11.33,54.593a18.444,18.444,0,0,0,17.81,14.614l50.255.4,2.161,31.924A7.935,7.935,0,0,0,220.1,466H387.286a7.935,7.935,0,0,0,8-7.924c0-.853.018-85.464,1.558-100.861.01-.111.019-.2.026-.313.924-15.9,6.369-35.48,12.133-56.222C419.641,262.4,430.64,223,418.1,192.762A7.846,7.846,0,0,0,410.713,188ZM340.977,85.893a11.515,11.515,0,1,1,8.143,3.373,11.441,11.441,0,0,1-8.143-3.373Zm-75.12-20.671a11.516,11.516,0,1,1,0,16.286A11.481,11.481,0,0,1,265.857,65.222ZM187.364,77.75a11.516,11.516,0,1,1,19.659,8.143h0a11.516,11.516,0,0,1-19.658-8.143ZM393.587,296.574c-5.981,21.524-11.632,41.7-12.681,59.265C379.579,369.58,379.339,428,379.3,450H227.58l-2.158-31.864a7.966,7.966,0,0,0-7.918-7.422l-57.673-.447a2.348,2.348,0,0,1-2.277-1.858l-12.679-61.038A7.994,7.994,0,0,0,136.95,341l-30.221.352a2.331,2.331,0,0,1-1.965-1.024,2.286,2.286,0,0,1-.234-2.2l39.636-96.855a8.317,8.317,0,0,0,.834-3.014V204H405.067C412.445,229,402.868,263.179,393.587,296.574Z"></path></g></svg>