<?xml version="1.0" standalone="no"?>
<!DOCTYPE svg PUBLIC "-//W3C//DTD SVG 20010904//EN"
 "http://www.w3.org/TR/2001/REC-SVG-20010904/DTD/svg10.dtd">
<svg version="1.0" xmlns="http://www.w3.org/2000/svg"
 width="732.000000pt" height="762.000000pt" viewBox="0 0 732.000000 762.000000"
 preserveAspectRatio="xMidYMid meet">

<g transform="translate(0.000000,762.000000) scale(0.100000,-0.100000)"
fill="#000000" stroke="none">
<path d="M512 7596 c-17 -38 -73 -96 -92 -96 -20 0 -99 -59 -99 -75 -1 -6 -10
-17 -21 -25 -49 -36 -14 -55 117 -66 48 -4 90 -10 93 -13 3 -3 28 -16 55 -29
71 -32 179 -52 545 -102 85 -11 182 -28 215 -36 169 -42 242 -38 310 16 30 24
47 30 84 30 52 0 81 -19 105 -67 24 -48 52 -63 118 -63 l58 0 0 37 c0 24 -8
45 -22 60 -30 32 -49 87 -57 163 -7 67 -32 127 -56 136 -17 7 -33 46 -43 104
l-8 45 -164 2 c-163 3 -166 2 -214 -25 -30 -16 -56 -40 -65 -59 -21 -41 -84
-73 -131 -66 -50 8 -82 31 -134 96 l-47 57 -268 0 -268 0 -11 -24z"/>
<path d="M2078 7533 c-2 -49 1 -117 6 -153 5 -36 10 -120 10 -186 l-1 -122 56
-26 c122 -56 276 -74 364 -43 61 22 178 22 288 1 103 -19 114 -14 160 74 19
37 39 72 45 79 6 6 17 25 24 42 7 17 18 31 24 31 6 0 23 19 38 43 l28 42 0
-42 c0 -33 4 -43 17 -43 14 0 15 -15 9 -152 -6 -130 -4 -159 10 -199 15 -42
22 -48 48 -51 27 -3 31 -8 39 -44 4 -24 4 -52 -2 -66 -8 -22 -18 -27 -65 -32
-31 -4 -56 -12 -56 -17 0 -5 -6 -9 -12 -9 -7 0 -30 -5 -52 -11 l-38 -11 35
-24 c20 -13 43 -24 51 -24 9 0 16 -6 16 -12 0 -9 3 -8 10 2 8 12 10 12 16 -4
4 -11 -1 -28 -13 -44 -33 -44 -53 -89 -53 -117 0 -14 -4 -24 -9 -21 -7 5 -15
-12 -26 -54 0 -3 -8 -18 -16 -35 -9 -16 -14 -38 -12 -47 3 -12 -2 -18 -14 -19
-10 0 -13 -3 -5 -6 17 -7 15 -23 -3 -23 -8 0 -15 -7 -15 -15 0 -9 -17 -44 -39
-78 -21 -34 -45 -86 -52 -114 -7 -29 -16 -53 -20 -53 -10 0 -26 -72 -40 -182
-8 -60 -17 -98 -24 -98 -7 0 -12 -27 -13 -77 -1 -42 -8 -111 -16 -152 -8 -42
-18 -101 -21 -131 -4 -30 -13 -68 -20 -85 -7 -16 -19 -55 -25 -85 -7 -30 -17
-68 -24 -85 -6 -16 -9 -38 -7 -49 2 -13 -1 -16 -11 -10 -10 6 -10 4 1 -10 11
-13 16 -14 22 -4 6 8 9 1 9 -19 0 -18 -4 -33 -10 -33 -5 0 -10 7 -10 15 0 8
-4 15 -10 15 -5 0 -10 -7 -10 -15 0 -8 -5 -14 -11 -13 -6 2 -14 -3 -16 -11 -4
-9 0 -11 15 -7 11 4 23 3 26 -2 3 -5 -9 -8 -27 -7 -18 2 -38 -2 -44 -7 -9 -7
-13 -7 -13 1 0 6 -6 11 -14 11 -8 0 -16 3 -18 8 -6 14 -79 42 -111 42 -18 0
-60 -10 -92 -21 -33 -12 -103 -25 -155 -29 -112 -9 -115 -10 -204 -69 -123
-82 -131 -88 -181 -143 -53 -59 -71 -91 -120 -213 -54 -134 -88 -388 -89 -660
-2 -309 31 -1544 43 -1645 6 -45 5 -67 -3 -72 -6 -5 -7 -8 -1 -8 6 0 3 -6 -6
-13 -9 -7 -18 -21 -20 -32 -3 -11 -12 -21 -22 -23 -14 -3 -17 4 -17 35 0 21
-7 48 -15 60 -22 31 -35 107 -45 268 -5 77 -14 203 -19 280 -6 77 -15 205 -20
285 -12 166 -26 416 -41 705 -6 110 -17 319 -25 465 -8 146 -19 357 -25 470
-14 295 -33 444 -76 615 -18 70 -146 322 -206 404 -51 69 -94 109 -180 166
-88 59 -112 58 -102 -6 11 -70 81 -505 128 -799 30 -184 61 -384 70 -445 9
-60 23 -150 31 -200 8 -49 26 -173 40 -275 14 -102 30 -210 35 -240 6 -30 27
-172 46 -315 20 -143 42 -305 50 -360 7 -55 36 -280 64 -500 27 -220 59 -476
72 -568 17 -130 19 -173 10 -187 -8 -14 -8 -20 0 -22 6 -2 -15 -31 -47 -64
-31 -32 -73 -79 -93 -104 -20 -25 -65 -74 -101 -110 -36 -37 -88 -102 -116
-145 -27 -44 -69 -109 -92 -145 -47 -72 -112 -200 -169 -333 -49 -116 -55
-119 -182 -84 -101 28 -225 58 -427 102 -66 14 -126 28 -132 30 -10 3 -13
-102 -13 -505 l0 -510 3660 0 3660 0 0 3240 0 3240 -237 1 c-302 0 -365 7
-399 41 -29 28 -41 89 -26 128 6 15 29 35 58 50 47 23 60 24 324 31 151 4 276
8 278 8 1 1 2 113 2 251 0 236 -1 250 -19 260 -11 5 -45 40 -76 77 -54 62 -57
69 -52 107 7 52 41 82 102 91 l45 7 0 44 0 44 -893 0 c-876 0 -893 0 -909 -20
-10 -11 -26 -37 -37 -59 -12 -22 -29 -42 -38 -45 -28 -8 -196 2 -227 14 -15 5
-38 10 -52 10 -13 0 -24 4 -24 9 0 5 -32 7 -71 5 -64 -3 -70 -2 -64 15 3 10 1
30 -4 45 -9 21 -17 26 -44 26 -28 0 -36 -5 -50 -35 -9 -19 -20 -35 -24 -34 -5
1 -10 0 -13 -1 -3 -1 -24 -3 -47 -4 -43 -2 -50 4 -67 57 -5 17 -25 18 -326 15
-319 -3 -320 -3 -335 -25 -9 -13 -26 -23 -38 -24 -12 0 -38 -7 -57 -15 l-35
-14 40 4 40 5 -45 -15 c-25 -8 -67 -25 -95 -38 -72 -33 -183 -69 -195 -61 -15
9 -84 -13 -110 -35 -13 -11 -29 -20 -37 -20 -8 0 -32 -18 -54 -40 -22 -22 -45
-40 -50 -40 -5 0 -9 -5 -9 -11 0 -5 -4 -8 -10 -4 -5 3 -18 0 -29 -7 -16 -10
-23 -9 -39 5 -10 9 -35 17 -55 17 l-37 0 0 45 c0 33 -4 45 -15 45 -11 0 -15
11 -15 40 l0 40 -44 0 -44 0 -7 75 -7 75 -533 0 -533 0 -4 -87z m2332 -329 c0
-2 -9 0 -20 6 -11 6 -20 13 -20 16 0 2 9 0 20 -6 11 -6 20 -13 20 -16z m-596
-29 c-27 -35 -34 -41 -34 -27 0 8 48 62 56 62 3 0 -7 -16 -22 -35z m545 -770
c-13 -43 -37 -58 -31 -19 2 16 1 17 -7 4 -9 -12 -11 -11 -11 9 0 16 4 22 15
17 8 -3 15 0 15 7 0 15 21 39 28 32 2 -2 -2 -25 -9 -50z m-112 -14 c5 -18 25
-22 39 -9 10 11 54 -39 54 -62 0 -11 5 -20 11 -20 6 0 8 7 5 15 -9 24 15 57
31 43 10 -8 13 -7 13 2 0 8 2 11 5 8 3 -3 -1 -21 -9 -40 l-15 -34 30 4 c24 4
29 1 29 -16 0 -11 -6 -22 -12 -25 -7 -2 -10 -8 -5 -12 4 -5 13 -3 19 3 16 16
28 15 28 -3 0 -8 3 -14 8 -14 4 1 40 1 80 0 51 -1 71 -5 70 -13 -4 -17 89 -27
242 -26 69 0 137 -5 151 -10 15 -6 30 -8 33 -5 3 4 6 -1 6 -10 0 -9 -5 -19
-12 -23 -7 -5 -3 -11 13 -17 21 -8 22 -10 6 -16 -17 -6 -17 -8 2 -25 12 -11
21 -15 21 -10 0 5 7 -4 15 -20 13 -24 15 -67 11 -255 -2 -124 -7 -237 -11
-251 -5 -19 -4 -22 4 -10 9 12 11 10 11 -10 0 -14 -3 -43 -7 -65 l-7 -40 -8
30 c-4 18 -6 -2 -3 -49 1 -44 -1 -107 -7 -140 -5 -34 -11 -90 -13 -126 -8
-113 -12 -165 -15 -175 -2 -5 2 -23 8 -38 17 -42 15 -56 -8 -52 -16 3 -20 -1
-20 -23 0 -21 2 -24 10 -12 9 13 10 13 11 0 0 -10 3 -8 9 5 8 18 9 17 9 -8 1
-16 -3 -26 -8 -23 -5 3 -11 -4 -14 -15 -5 -17 -9 -19 -26 -10 -13 7 -18 18
-15 29 5 16 5 16 -8 0 -10 -12 -25 -16 -48 -13 -22 3 -40 -1 -52 -12 -12 -10
-18 -12 -18 -4 0 7 -5 9 -11 5 -38 -23 -172 -46 -261 -44 -64 1 -98 -2 -98 -9
0 -6 -8 -11 -18 -11 -10 0 -22 -3 -26 -7 -4 -4 -24 -8 -46 -8 -26 -1 -48 -9
-63 -23 -27 -26 -57 -31 -37 -7 7 8 9 15 6 15 -11 0 -39 -30 -29 -31 4 -1 -3
-4 -17 -8 -22 -6 -25 -13 -28 -60 -3 -43 -6 -52 -19 -47 -12 5 -14 2 -9 -14 3
-11 9 -30 13 -42 4 -14 3 -19 -5 -14 -14 9 -81 -81 -82 -109 0 -12 -9 -39 -20
-60 -47 -92 -103 -279 -106 -356 -2 -42 -7 -87 -12 -100 -6 -15 -5 -32 0 -45
7 -14 7 -38 0 -71 -6 -26 -8 -82 -5 -123 5 -70 4 -77 -21 -105 -14 -16 -26
-33 -26 -36 0 -14 -97 -102 -140 -127 -25 -14 -46 -30 -48 -34 -2 -4 -9 -8
-16 -8 -7 0 -21 -9 -31 -20 -10 -12 -31 -20 -49 -20 l-31 -1 25 -13 c14 -8 40
-17 58 -21 18 -4 63 -27 100 -52 117 -78 188 -107 265 -109 37 0 67 3 67 7 0
4 8 8 18 8 42 2 62 6 62 12 0 3 12 11 27 18 19 9 28 9 33 1 5 -7 9 -4 13 9 3
14 13 21 30 21 41 0 91 41 101 83 13 50 -2 107 -60 225 -35 74 -43 97 -33 108
9 11 8 15 -5 20 -9 3 -16 15 -16 25 0 10 -4 19 -10 19 -12 0 -50 77 -50 102 0
19 -15 24 -25 8 -8 -13 -34 -1 -46 22 -8 15 -8 23 1 28 9 5 9 9 1 14 -6 4 -11
2 -11 -3 0 -6 -9 -11 -20 -11 -14 0 -20 -7 -21 -22 l0 -23 -11 23 c-8 15 -20
22 -40 22 -17 0 -28 5 -28 14 0 8 -8 13 -17 12 -13 -1 -18 6 -18 24 0 17 5 25
16 24 11 -1 15 5 12 16 -3 12 3 23 16 29 12 7 21 18 21 26 0 8 5 15 10 15 6 0
10 -7 10 -15 0 -9 7 -18 15 -21 8 -4 15 -12 15 -19 0 -6 9 -20 20 -30 20 -18
20 -17 20 33 0 31 5 52 13 55 8 3 5 12 -10 29 -24 26 -30 48 -13 48 6 0 10 6
10 13 0 18 24 67 33 67 4 0 7 -8 8 -17 0 -15 2 -15 9 2 7 18 8 19 15 3 4 -10
16 -18 27 -18 10 0 17 -4 13 -10 -7 -12 16 -50 31 -50 7 0 10 21 7 63 -2 34
-4 75 -4 90 -1 19 -6 26 -15 23 -34 -13 -10 35 39 78 170 151 235 179 424 182
103 1 141 -2 168 -14 41 -19 43 -25 12 -45 -16 -10 -49 -15 -107 -15 -144 1
-297 -36 -389 -93 -70 -43 -88 -70 -55 -83 31 -12 44 -6 44 20 0 22 4 25 28
23 26 -2 116 33 126 49 4 7 22 8 84 4 13 -1 21 -6 18 -10 -12 -20 18 -94 50
-121 44 -39 86 -50 154 -40 30 4 71 8 90 8 l35 1 -26 -13 c-59 -32 -118 -46
-151 -37 -37 11 -34 13 -43 -23 -6 -23 -4 -27 14 -27 12 0 21 -3 21 -7 0 -5
11 -9 25 -9 14 -1 32 -7 40 -14 17 -14 8 -43 -11 -36 -8 3 -14 -1 -14 -9 0 -8
-12 -21 -27 -29 l-28 -14 27 -7 c16 -4 26 -10 24 -14 -8 -12 219 1 226 13 5 6
8 0 8 -14 0 -14 5 -32 11 -40 8 -11 9 -9 3 10 -3 14 -3 22 1 18 4 -4 11 -22
15 -40 l8 -33 1 42 c1 58 10 77 27 62 11 -9 14 -6 14 17 0 22 2 26 13 15 9 -9
11 -52 10 -159 -2 -117 2 -173 20 -273 18 -100 20 -128 10 -137 -17 -17 -23
-15 -23 8 0 11 -4 20 -10 20 -5 0 -10 -5 -10 -11 0 -5 -4 -8 -10 -4 -6 4 -6
-5 0 -22 6 -15 8 -44 6 -63 -2 -19 -4 -41 -5 -49 0 -7 -7 -11 -15 -8 -8 3 -19
-8 -29 -29 -11 -21 -22 -32 -30 -28 -8 3 -22 -2 -31 -11 -9 -9 -16 -14 -16
-11 0 3 -22 -17 -49 -44 -33 -33 -60 -51 -85 -55 -20 -4 -36 -13 -36 -20 0 -7
-12 -26 -28 -43 -21 -23 -25 -32 -15 -41 7 -6 18 -10 25 -9 7 2 12 -9 11 -29
0 -32 7 -38 42 -34 19 2 14 -82 -5 -104 -10 -11 -20 -26 -22 -34 -2 -7 -13
-25 -25 -38 -30 -34 -40 -83 -19 -95 9 -5 16 -22 16 -38 0 -24 -6 -31 -35 -41
-36 -13 -47 -29 -19 -29 8 0 12 -4 9 -10 -3 -5 -17 -10 -31 -10 -13 0 -24 -4
-24 -10 0 -15 -66 -23 -88 -11 -15 8 -19 18 -16 35 3 20 -2 28 -27 40 -39 19
-61 20 -78 4 -11 -10 -14 -10 -18 0 -6 14 -53 17 -53 2 0 -5 9 -10 20 -10 11
0 20 -4 20 -10 0 -5 -11 -10 -23 -10 -13 0 -32 -9 -42 -20 -18 -20 -30 -19
-30 3 0 7 -7 12 -15 12 -11 0 -14 -9 -12 -30 3 -35 -31 -78 -41 -52 -3 8 -1
20 4 28 5 8 9 19 9 25 0 17 -62 1 -98 -25 -32 -23 -62 -27 -78 -11 -6 6 -14 3
-22 -10 -9 -14 -9 -20 -1 -20 8 0 8 -5 -1 -15 -7 -8 -19 -15 -27 -15 -17 0
-43 -24 -43 -39 0 -17 39 -23 96 -16 45 5 54 4 54 -9 0 -9 3 -16 8 -16 4 -1
18 -10 31 -20 22 -19 23 -21 6 -46 -9 -14 -15 -34 -12 -45 3 -11 -3 -23 -17
-32 -12 -8 -28 -33 -36 -56 -7 -23 -15 -39 -18 -37 -2 3 -15 -8 -29 -25 -14
-16 -33 -29 -43 -29 -10 0 -23 -7 -30 -15 -7 -8 -23 -15 -37 -15 -13 0 -39 -6
-58 -14 -54 -23 -136 -29 -186 -15 -24 7 -51 14 -60 15 -48 4 -97 18 -128 35
-20 10 -52 25 -71 34 -55 24 -104 78 -148 163 -50 96 -115 283 -133 381 -11
65 -20 84 -69 150 -130 177 -210 343 -299 623 -22 69 -47 141 -57 159 -55 108
-89 439 -65 639 15 121 78 465 127 691 8 37 14 78 14 91 0 44 21 88 43 93 96
22 102 22 121 4 10 -10 15 -22 11 -28 -3 -6 -2 -11 3 -11 4 0 19 -10 32 -22
25 -23 51 -42 167 -121 35 -23 63 -46 63 -51 0 -5 10 -18 23 -29 16 -15 17
-19 4 -14 -44 16 -197 36 -237 31 -58 -6 -96 -33 -92 -65 5 -32 8 -34 28 -15
25 26 82 46 130 46 48 0 164 -23 209 -41 38 -15 126 -28 119 -17 -3 4 0 16 5
25 10 17 10 17 11 1 0 -10 5 -18 10 -18 6 0 10 5 10 10 0 6 7 10 15 10 21 0
19 12 -10 66 -21 40 -79 94 -100 94 -4 0 -26 13 -49 30 -57 38 -135 80 -152
80 -8 0 -14 5 -14 10 0 6 -7 10 -15 10 -8 0 -15 4 -15 8 0 10 -65 42 -87 42
-13 0 -14 2 -2 17 12 15 12 16 -3 11 -9 -4 -23 1 -33 12 -13 14 -26 17 -53 13
-29 -4 -34 -2 -22 6 11 9 3 10 -35 5 -61 -7 -59 -15 -38 159 22 189 34 232
100 360 13 26 21 47 18 47 -4 0 1 7 9 16 9 8 16 21 16 29 0 7 6 15 13 18 7 2
12 22 11 55 0 37 3 52 13 52 7 0 13 5 13 11 0 6 7 18 16 26 12 12 13 18 3 24
-13 8 9 43 60 96 12 12 20 26 19 31 -2 5 9 21 23 34 14 13 34 37 44 51 9 15
25 27 34 28 13 0 12 2 -3 8 -17 7 -17 8 -2 24 10 9 24 17 32 17 8 0 14 5 14
10 0 6 9 10 21 10 11 0 18 4 15 9 -4 5 3 7 14 4 14 -4 19 -1 15 8 -13 37 75
79 171 80 50 1 62 3 44 9 -24 8 -24 8 -2 9 12 1 25 8 28 16 10 26 109 12 178
-24 32 -17 65 -31 73 -31 8 0 29 -10 46 -23 18 -12 38 -23 45 -22 6 0 12 -4
11 -9 0 -5 5 -13 13 -17 15 -10 44 -12 35 -2 -4 3 -2 12 4 19 8 10 6 22 -9 48
-16 27 -18 36 -7 40 7 2 16 -2 19 -11 4 -9 13 -13 22 -9 9 4 23 1 30 -5 17
-14 18 -33 2 -23 -8 5 -7 0 2 -11 14 -18 15 -17 18 5 2 12 -1 27 -7 33 -6 6
-11 19 -11 29 0 10 -4 18 -10 18 -5 0 -10 5 -10 10 0 18 32 10 37 -9z m-494
-8 c-7 -2 -19 -2 -25 0 -7 3 -2 5 12 5 14 0 19 -2 13 -5z m310 -40 c-7 -2 -19
-2 -25 0 -7 3 -2 5 12 5 14 0 19 -2 13 -5z m27 -34 c0 -6 -4 -7 -10 -4 -5 3
-10 11 -10 16 0 6 5 7 10 4 6 -3 10 -11 10 -16z m-880 -29 c-8 -5 -19 -10 -25
-10 -5 0 -3 5 5 10 8 5 20 10 25 10 6 0 3 -5 -5 -10z m1927 -112 c-3 -7 -5 -2
-5 12 0 14 2 19 5 13 2 -7 2 -19 0 -25z m532 -128 c11 -24 11 -24 -3 -6 -9 11
-16 24 -16 30 0 12 5 7 19 -24z m-2849 -394 c0 -3 -4 -8 -10 -11 -5 -3 -10 -1
-10 4 0 6 5 11 10 11 6 0 10 -2 10 -4z m240 -526 c13 -9 13 -10 0 -9 -8 0 -24
4 -35 9 l-20 9 20 0 c11 0 27 -4 35 -9z m103 -37 c-7 -2 -21 -2 -30 0 -10 3
-4 5 12 5 17 0 24 -2 18 -5z m-523 -213 c0 -5 -5 -10 -11 -10 -5 0 -7 5 -4 10
3 6 8 10 11 10 2 0 4 -4 4 -10z m-341 -403 c24 -13 49 -32 55 -42 6 -11 14
-22 18 -25 4 -4 1 -16 -8 -28 -10 -15 -25 -22 -47 -22 -22 0 -36 -7 -45 -20
-7 -12 -17 -18 -21 -15 -5 2 -11 -2 -15 -10 -10 -27 -98 -19 -150 14 -25 15
-42 31 -38 35 4 4 3 6 -3 5 -16 -4 -78 12 -99 27 -18 12 -17 14 9 38 15 14 38
26 50 26 13 0 42 9 66 20 63 28 169 27 228 -3z m2507 -143 c-5 -14 -9 -15 -19
-5 -9 9 -9 14 3 21 18 11 24 6 16 -16z m510 -464 c4 -25 11 -37 19 -34 8 4 14
-11 19 -45 4 -27 10 -51 14 -53 10 -4 3 -88 -7 -88 -4 0 -6 13 -3 29 2 16 -1
32 -7 35 -6 4 -11 0 -12 -11 0 -16 -1 -16 -9 2 -8 18 -9 18 -9 2 -1 -10 5 -20
12 -23 8 -3 13 -19 13 -39 -1 -32 -2 -32 -18 -15 -9 9 -19 30 -22 46 -2 16 -3
-8 -1 -53 3 -55 1 -83 -6 -83 -6 0 -8 7 -5 16 3 8 2 13 -3 10 -11 -7 -20 65
-26 191 l-4 98 14 -64 c9 -36 17 -67 20 -69 9 -9 5 74 -4 84 -5 5 -11 29 -15
54 -4 31 -3 40 4 30 8 -12 10 -11 10 8 0 36 19 16 26 -28z m11 -312 c-3 -8 -6
-5 -6 6 -1 11 2 17 5 13 3 -3 4 -12 1 -19z m-387 -896 c0 -13 -12 -22 -22 -16
-10 6 -1 24 13 24 5 0 9 -4 9 -8z m220 -26 c0 -8 -4 -18 -10 -21 -5 -3 -10 3
-10 14 0 12 5 21 10 21 6 0 10 -6 10 -14z m-1024 -753 c13 -14 24 -32 24 -40
0 -18 38 -93 48 -93 4 0 8 -12 8 -26 2 -25 34 -64 52 -64 5 0 15 -7 22 -15 7
-8 16 -12 21 -9 5 3 9 -4 9 -14 0 -15 5 -19 20 -15 13 4 26 -1 34 -12 7 -10
18 -15 23 -12 6 4 18 -5 28 -19 16 -25 17 -25 36 -8 19 17 20 17 13 0 -5 -14
-3 -17 7 -14 8 3 13 14 11 24 -2 15 2 14 21 -8 25 -30 40 -37 31 -14 -3 8 -1
17 5 21 6 3 14 -1 17 -9 3 -9 11 -13 16 -10 13 8 28 -15 28 -43 0 -14 -6 -23
-15 -23 -8 0 -15 -4 -15 -10 0 -5 7 -10 15 -10 8 0 15 4 15 8 0 11 97 45 109
38 14 -9 6 -39 -13 -50 -10 -6 -35 -28 -56 -48 -20 -21 -41 -38 -47 -38 -5 0
-22 -13 -36 -30 -15 -16 -33 -30 -41 -30 -7 0 -19 -7 -26 -15 -16 -19 -40 -19
-40 0 0 8 -5 15 -11 15 -5 0 -7 5 -4 11 4 6 -2 20 -13 32 -11 12 -34 49 -52
82 -18 33 -37 65 -44 70 -6 6 -22 24 -35 40 -32 42 -108 122 -132 139 -11 8
-21 20 -23 28 -1 8 -21 32 -44 53 -23 22 -42 43 -42 48 0 4 -12 20 -26 35 -51
54 -50 59 17 60 53 1 64 -2 85 -25z m521 -345 c-3 -8 -6 -5 -6 6 -1 11 2 17 5
13 3 -3 4 -12 1 -19z"/>
<path d="M4327 6283 c-4 -3 -7 -13 -7 -22 1 -13 3 -13 11 2 11 19 8 33 -4 20z"/>
<path d="M5091 5504 c0 -11 3 -14 6 -6 3 7 2 16 -1 19 -3 4 -6 -2 -5 -13z"/>
<path d="M5072 5410 c0 -14 2 -19 5 -12 2 6 2 18 0 25 -3 6 -5 1 -5 -13z"/>
<path d="M3048 5163 c7 -3 16 -2 19 1 4 3 -2 6 -13 5 -11 0 -14 -3 -6 -6z"/>
<path d="M3569 4668 c13 -14 19 -29 15 -44 -4 -15 1 -26 17 -38 13 -8 20 -19
16 -23 -4 -3 -13 1 -20 11 -7 10 -29 19 -49 20 -19 2 -57 14 -84 27 -44 21
-63 23 -180 24 -127 0 -131 -1 -167 -27 -19 -16 -47 -32 -61 -38 -15 -5 -25
-13 -24 -17 1 -5 -3 -18 -10 -31 -13 -22 -13 -22 43 -16 47 6 55 4 55 -10 0
-20 16 -21 24 -1 3 8 2 14 -2 12 -4 -1 -8 2 -9 7 -1 5 -7 12 -13 16 -9 6 -6
11 9 19 12 7 26 9 32 5 6 -4 14 -1 18 5 8 13 112 42 124 34 4 -2 4 -9 1 -15
-5 -7 -1 -9 9 -5 15 5 17 -1 17 -45 0 -34 7 -62 20 -84 18 -28 28 -34 75 -39
29 -4 74 -5 99 -4 28 3 47 0 50 -7 4 -10 21 -15 94 -28 12 -2 22 -1 22 4 0 4
-16 11 -35 14 -27 5 -35 12 -35 28 0 17 4 19 25 14 30 -8 33 10 10 55 -16 29
-12 55 6 44 9 -6 14 14 11 48 -2 21 -40 56 -59 57 -7 0 -13 5 -13 11 0 14 -26
39 -40 39 -6 0 -2 -10 9 -22z m-149 -88 c0 -5 -4 -10 -10 -10 -5 0 -10 5 -10
10 0 6 5 10 10 10 6 0 10 -4 10 -10z"/>
<path d="M4513 4193 c9 -2 23 -2 30 0 6 3 -1 5 -18 5 -16 0 -22 -2 -12 -5z"/>
<path d="M4565 4180 c3 -5 8 -10 11 -10 2 0 4 5 4 10 0 6 -5 10 -11 10 -5 0
-7 -4 -4 -10z"/>
<path d="M4740 4074 c0 -8 5 -12 10 -9 6 4 17 1 25 -5 19 -16 40 -3 23 13 -19
19 -58 19 -58 1z"/>
<path d="M5142 3815 c0 -16 2 -22 5 -12 2 9 2 23 0 30 -3 6 -5 -1 -5 -18z"/>
<path d="M4252 3789 c-7 -11 -11 -23 -9 -25 7 -7 29 24 25 36 -2 6 -9 1 -16
-11z"/>
<path d="M5167 3480 c3 -11 10 -23 16 -27 7 -4 8 0 4 11 -4 10 -7 22 -7 27 0
5 -4 9 -9 9 -5 0 -7 -9 -4 -20z"/>
<path d="M3462 2967 c50 -47 93 -74 133 -87 65 -20 80 -30 64 -42 -10 -6 -4
-7 17 -3 23 4 35 1 49 -15 10 -11 26 -20 36 -20 15 0 17 -5 12 -32 -4 -22 -3
-29 5 -24 7 4 12 15 12 24 1 15 2 15 15 -2 8 -11 15 -14 15 -8 0 20 40 14 40
-5 1 -16 2 -16 13 -2 12 16 82 36 73 21 -3 -5 9 -7 27 -4 25 3 29 1 17 -7 -13
-9 -13 -11 1 -11 8 0 20 5 25 10 17 17 43 2 37 -21 -7 -24 -23 -25 -24 -1 0 9
-9 -1 -19 -23 -10 -21 -16 -43 -14 -47 3 -4 0 -8 -5 -8 -6 0 -11 8 -11 18 -1
9 -7 31 -15 47 l-13 30 6 -40 c9 -65 8 -67 -20 -70 -22 -3 -28 1 -28 16 0 10
-5 19 -11 19 -6 0 -8 -8 -4 -19 4 -14 0 -23 -15 -31 -30 -16 -35 -7 -14 25 17
26 17 27 -2 23 -10 -2 -25 -10 -32 -18 -11 -13 -12 -11 -6 10 4 14 9 32 12 40
3 8 -4 4 -16 -10 -14 -16 -21 -20 -22 -10 0 11 -3 11 -12 2 -18 -18 -27 -14
-22 11 3 16 1 14 -10 -8 -9 -16 -15 -23 -16 -15 0 9 -9 16 -19 16 -26 0 -36
-37 -13 -43 10 -2 25 -17 34 -34 19 -32 58 -40 59 -11 0 14 2 14 7 2 7 -16 42
-27 42 -13 0 4 11 9 25 9 35 2 31 -13 -5 -21 -16 -4 -30 -11 -30 -17 0 -5 -17
-9 -37 -7 -21 1 -46 1 -56 0 -30 -2 -15 -33 23 -47 47 -17 175 -18 192 -1 25
24 84 36 187 38 99 3 105 2 124 -22 13 -15 18 -18 14 -7 -7 19 30 61 45 52 4
-3 8 0 8 5 0 6 7 11 15 11 8 0 21 14 30 30 11 21 23 30 40 30 13 0 27 5 30 10
3 6 15 10 25 10 12 0 22 9 25 23 4 15 22 30 53 44 65 29 82 34 82 23 0 -16 26
-11 43 8 10 10 17 35 17 54 l0 36 -55 7 c-39 4 -59 12 -68 26 -7 12 -23 19
-42 19 -17 0 -36 5 -42 11 -16 16 -93 2 -87 -16 3 -7 -4 -15 -18 -18 -33 -8
-132 -21 -140 -19 -5 1 -8 -3 -8 -9 0 -6 -5 -7 -12 -2 -7 4 -31 9 -54 10 -23
2 -74 11 -115 22 -54 14 -94 17 -149 13 -138 -9 -161 -8 -171 11 -5 9 -32 23
-60 31 -45 14 -79 20 -209 42 l-35 6 27 -25z m978 -77 c0 -5 -2 -10 -4 -10 -3
0 -8 5 -11 10 -3 6 -1 10 4 10 6 0 11 -4 11 -10z m-264 -188 c-18 -16 -18 -16
-6 6 6 13 14 21 18 18 3 -4 -2 -14 -12 -24z m-256 -182 c0 -5 -5 -10 -11 -10
-5 0 -7 5 -4 10 3 6 8 10 11 10 2 0 4 -4 4 -10z"/>
<path d="M3600 2684 c0 -8 5 -12 10 -9 6 4 8 11 5 16 -9 14 -15 11 -15 -7z"/>
<path d="M3633 2688 c-2 -5 4 -8 14 -9 16 0 16 -1 -2 -9 -17 -8 -15 -9 10 -7
38 3 47 32 9 32 -14 0 -28 -3 -31 -7z"/>
<path d="M3932 2674 c-7 -8 -8 -14 -3 -14 10 0 25 19 20 25 -2 1 -10 -3 -17
-11z"/>
<path d="M4457 2583 c-13 -12 -7 -33 8 -33 8 0 15 9 15 20 0 20 -11 26 -23 13z"/>
<path d="M4240 2480 c0 -13 5 -18 15 -14 8 4 15 12 15 20 0 8 -7 14 -15 14 -8
0 -15 -9 -15 -20z"/>
<path d="M0 7032 c0 -24 44 -35 210 -51 58 -6 170 -17 250 -26 151 -16 217
-19 208 -9 -6 5 -141 28 -268 44 -36 5 -105 15 -155 23 -50 9 -118 18 -153 22
-35 3 -70 9 -78 12 -9 3 -14 -2 -14 -15z"/>
<path d="M808 6913 c7 -3 16 -2 19 1 4 3 -2 6 -13 5 -11 0 -14 -3 -6 -6z"/>
<path d="M888 6913 c7 -3 16 -2 19 1 4 3 -2 6 -13 5 -11 0 -14 -3 -6 -6z"/>
<path d="M1010 6900 c0 -5 11 -9 25 -8 14 1 25 6 25 10 0 4 -11 8 -25 8 -14 0
-25 -4 -25 -10z"/>
<path d="M1760 6799 c0 -5 9 -9 20 -9 11 0 20 2 20 4 0 2 -9 6 -20 9 -11 3
-20 1 -20 -4z"/>
<path d="M0 6341 l0 -142 138 6 c75 4 175 11 222 16 189 22 360 12 360 -20 0
-11 59 -33 77 -27 10 2 79 7 153 11 75 3 154 10 175 15 22 5 60 10 84 10 37 0
42 2 31 15 -11 13 -8 15 21 15 19 0 41 5 49 10 11 7 3 10 -28 10 -30 0 -41 4
-36 12 5 8 -3 9 -29 5 -21 -3 -37 -2 -37 4 0 5 -7 9 -15 9 -9 0 -29 10 -46 22
-25 19 -33 20 -49 10 -30 -18 -96 -14 -142 9 -25 13 -43 17 -47 11 -7 -11 -29
-15 -84 -13 -32 1 -46 9 -85 49 -46 47 -48 48 -87 39 -83 -18 -132 -19 -163
-3 -22 11 -59 16 -127 16 -52 0 -95 4 -95 9 0 5 -9 7 -20 4 -11 -3 -27 0 -35
7 -8 7 -36 14 -62 16 -25 1 -64 6 -85 9 l-38 7 0 -141z"/>
<path d="M1280 6285 c0 -8 4 -15 10 -15 5 0 7 7 4 15 -4 8 -8 15 -10 15 -2 0
-4 -7 -4 -15z"/>
<path d="M1280 6220 c0 -6 7 -10 15 -10 8 0 15 2 15 4 0 2 -7 6 -15 10 -8 3
-15 1 -15 -4z"/>
</g>
</svg>
